<svg xmlns="http://www.w3.org/2000/svg" viewBox="0 0 960 540" preserveAspectRatio="none">
  <defs>
    <filter id="paper" x="-10%" y="-10%" width="120%" height="120%">
      <feTurbulence type="fractalNoise" baseFrequency="0.012 0.035" numOctaves="5" seed="17" result="noise"/>
      <feDisplacementMap in="SourceGraphic" in2="noise" scale="16" xChannelSelector="R" yChannelSelector="G"/>
    </filter>
    <linearGradient id="warm" x1="0" x2="1" y1="0" y2="1">
      <stop offset="0" stop-color="#f5f0e7"/>
      <stop offset="0.48" stop-color="#ddd2c4"/>
      <stop offset="1" stop-color="#f8f5ee"/>
    </linearGradient>
    <linearGradient id="crease" x1="0" x2="1" y1="0" y2="0">
      <stop offset="0" stop-color="#9f8f79" stop-opacity="0"/>
      <stop offset="0.48" stop-color="#9f8f79" stop-opacity="0.34"/>
      <stop offset="0.52" stop-color="#fffaf0" stop-opacity="0.38"/>
      <stop offset="1" stop-color="#9f8f79" stop-opacity="0"/>
    </linearGradient>
  </defs>
  <rect width="960" height="540" fill="url(#warm)"/>
  <g filter="url(#paper)" opacity="0.72">
    <path d="M-40 80 C130 32 240 140 420 72 C570 15 700 108 1000 36" fill="none" stroke="#ad9b82" stroke-width="28" stroke-opacity="0.18"/>
    <path d="M-20 405 C130 340 250 455 392 360 C520 276 730 390 990 298" fill="none" stroke="#9d8b75" stroke-width="34" stroke-opacity="0.16"/>
    <path d="M115 -20 C160 105 140 230 225 340 C286 420 250 486 318 580" fill="none" stroke="#8d806e" stroke-width="22" stroke-opacity="0.14"/>
    <path d="M620 -30 C560 95 635 176 592 290 C558 380 635 462 595 580" fill="none" stroke="#8f806c" stroke-width="26" stroke-opacity="0.16"/>
    <path d="M0 210 L212 182 L380 240 L548 196 L742 250 L960 212" fill="none" stroke="#fff9ed" stroke-width="10" stroke-opacity="0.28"/>
    <path d="M26 118 L190 250 L345 210 L488 338 L650 280 L832 430" fill="none" stroke="#7c705f" stroke-width="8" stroke-opacity="0.11"/>
    <path d="M110 520 L280 388 L438 434 L590 320 L730 360 L920 250" fill="none" stroke="#ffffff" stroke-width="13" stroke-opacity="0.24"/>
  </g>
  <g opacity="0.5">
    <rect x="90" y="-80" width="62" height="720" fill="url(#crease)" transform="rotate(23 120 270)"/>
    <rect x="420" y="-90" width="54" height="720" fill="url(#crease)" transform="rotate(-18 450 270)"/>
    <rect x="705" y="-80" width="56" height="720" fill="url(#crease)" transform="rotate(31 735 270)"/>
  </g>
</svg>
